<svg width="162" height="178" viewBox="0 0 162 178" fill="none" xmlns="http://www.w3.org/2000/svg">
<g opacity="0.95">
<path d="M135.011 -34.8273C93.566 -104.939 -47.8146 25.7701 -91.0763 61.4888L56.5326 242.751L266.814 71.5103C236.6 81.6886 176.455 35.2839 135.011 -34.8273Z" fill="#AC9FFF"/>
<path d="M78.6222 81.0431C40.4458 18.4424 -39.8357 61.2787 -75.2044 90.5219L57.9479 254.032L209.7 116.564C184.39 124.161 116.064 127.022 78.6222 81.0431Z" fill="#8B78FF"/>
<path d="M113.612 -31.7859C37.348 -152.446 -103.146 -82.0058 -163.86 -31.7035L95.8872 287.264L345.331 106.431L275.843 -55.2858C230.878 -44.055 186.653 57.907 113.612 -31.7859Z" fill="#467AB6" fill-opacity="0.4"/>
<path d="M94.975 150.716C43.242 98.0921 -21.2989 141.878 -49.1275 178.37L87.0996 283.881L203.285 115.236C180.3 128.325 142.161 187.263 94.975 150.716Z" fill="#614DDD"/>
</g>
</svg>
