<svg width="53" height="46" viewBox="0 0 53 46" fill="none" xmlns="http://www.w3.org/2000/svg">
<path d="M26.5111 19.6172C25.9889 19.6172 25.5654 20.0406 25.5654 20.5629V22.4541C25.5654 22.9764 25.9888 23.3998 26.5111 23.3998C27.0334 23.3998 27.4568 22.9764 27.4568 22.4541V20.5629C27.4568 20.0406 27.0333 19.6172 26.5111 19.6172Z" fill="white"/>
<path d="M31.8608 19.8487L30.5234 18.5114C30.1542 18.142 29.5554 18.142 29.1862 18.5114C28.8169 18.8807 28.8169 19.4794 29.1862 19.8487L30.5235 21.1861C30.7081 21.3707 30.9502 21.4631 31.1921 21.4631C31.4341 21.4631 31.6762 21.3708 31.8608 21.1861C32.2301 20.8168 32.2301 20.218 31.8608 19.8487Z" fill="white"/>
<path d="M23.8354 18.5114C23.4662 18.142 22.8674 18.142 22.4981 18.5114L21.1608 19.8487C20.7915 20.218 20.7915 20.8168 21.1608 21.1861C21.3454 21.3707 21.5874 21.4631 21.8294 21.4631C22.0714 21.4631 22.3135 21.3708 22.498 21.1861L23.8354 19.8487C24.2047 19.4794 24.2047 18.8807 23.8354 18.5114Z" fill="white"/>
<g filter="url(#filter0_f_730_1817)">
<circle cx="26.0107" cy="19.3984" r="6" fill="#FFF1D6"/>
</g>
<path d="M27.4565 4.54043V0.0745463V0.0774486C26.9343 0.0774486 25.7794 0.0745463 25.5652 0.0688695V0.0745463V4.54043C21.3157 5.01236 18 8.62518 18 12.9985C18 13.5207 18.4234 13.9441 18.9457 13.9441H21.8778C22.3171 16.0997 24.2275 17.7268 26.5109 17.7268C28.7943 17.7268 30.7047 16.0998 31.1441 13.9441H34.0762C34.5984 13.9441 35.0219 13.5207 35.0219 12.9985C35.0218 8.62518 31.706 5.01236 27.4565 4.54043ZM27.4565 0.0745463C27.4565 -0.244415 27.4565 0.59598 27.4565 0.0745463V0.0745463ZM26.5109 15.8354C25.278 15.8354 24.227 15.0448 23.8366 13.9441H29.1852C28.7948 15.0448 27.7437 15.8354 26.5109 15.8354ZM19.9586 12.0528C20.4189 8.84908 23.1819 6.37887 26.5109 6.37887C29.8399 6.37887 32.6029 8.84908 33.0631 12.0528H19.9586Z" fill="white"/>
<defs>
<filter id="filter0_f_730_1817" x="0.0107422" y="-6.60156" width="52" height="52" filterUnits="userSpaceOnUse" color-interpolation-filters="sRGB">
<feFlood flood-opacity="0" result="BackgroundImageFix"/>
<feBlend mode="normal" in="SourceGraphic" in2="BackgroundImageFix" result="shape"/>
<feGaussianBlur stdDeviation="10" result="effect1_foregroundBlur_730_1817"/>
</filter>
</defs>
</svg>
