<svg width="60" height="60" viewBox="0 0 60 60" fill="none" xmlns="http://www.w3.org/2000/svg">
<g clip-path="url(#clip0_976_860)">
<path d="M59.6876 26.3016L49.1019 1.54841C48.7216 0.652978 47.8262 0.0151367 46.8081 0.0151367H13.1129C12.0948 0.0151367 11.1994 0.652978 10.8192 1.54841L0.0985177 26.6941C-0.159072 27.4546 -0.0732087 30.1409 2.39229 30.1409H13.4196C14.0942 38.4941 21.3313 45.2037 29.9544 45.2037C38.5775 45.2037 45.7042 38.4941 46.4769 30.1409H57.4184C57.4184 30.1409 57.4552 30.1409 57.5165 30.1409C58.8044 30.1286 60.767 28.5953 59.6876 26.3016ZM29.9544 40.2114C24.128 40.2114 19.197 35.7833 18.5468 30.1286H41.3742C40.7364 35.7956 35.9035 40.2114 29.9544 40.2114ZM6.21934 25.1608L14.7689 4.9952H45.1399L53.6894 25.1608H6.21934Z" fill="#84BCFF"/>
</g>
<defs>
<clipPath id="clip0_976_860">
<rect width="60" height="60" fill="white"/>
</clipPath>
</defs>
</svg>
