<svg width="59" height="92" viewBox="0 0 59 92" fill="none" xmlns="http://www.w3.org/2000/svg">
<path d="M58.7194 39.1799L49.262 1.03252C49.1116 0.425791 48.567 0 47.9423 0L10.842 0C10.2169 0 9.67243 0.426151 9.52228 1.03252L0.0648626 39.1799C-0.0357788 39.5861 0.05604 40.0159 0.313675 40.3452C0.57131 40.6744 0.966314 40.8671 1.38472 40.8671L24.8662 40.8671V48.7722H24.0778C21.6612 48.7722 19.3405 49.7955 17.7104 51.5795C16.0809 53.3634 15.2711 55.7669 15.4891 58.1729L17.8028 83.7898H15.0415C14.2908 83.7898 13.6817 84.3987 13.6817 85.1497L13.6817 90.8202C13.6817 91.5709 14.2906 92.18 15.0415 92.18L43.7427 92.18C44.4935 92.18 45.1025 91.5711 45.1025 90.8202V85.1497C45.1025 84.3989 44.4936 83.7898 43.7427 83.7898H40.9815L43.2955 58.1735C43.5133 55.7669 42.7037 53.3634 41.074 51.5795C39.4443 49.7955 37.1234 48.7724 34.7069 48.7724H33.9182L33.9182 40.8669H42.4374L42.4374 50.3132C42.4374 51.0639 43.0465 51.673 43.7973 51.673C44.548 51.673 45.1571 51.0641 45.1571 50.3132L45.1571 40.8669H57.4002C57.8186 40.8669 58.2136 40.6744 58.4713 40.345C58.7284 40.0155 58.8202 39.5858 58.7194 39.1799ZM42.3825 86.5091V89.46L16.401 89.46V86.5091L42.3825 86.5091ZM34.7064 51.4917C36.3853 51.4917 37.9334 52.174 39.0657 53.4136C40.1978 54.6528 40.7379 56.256 40.5865 57.9282L38.2503 83.7897L20.5331 83.7897L18.1974 57.9277C18.046 56.256 18.5861 54.6528 19.7178 53.4136C20.8501 52.1742 22.3983 51.4917 24.0771 51.4917H34.7064ZM27.5857 48.772V40.8669H31.1984V48.772H27.5857ZM3.12245 38.1474L11.9058 2.71966L46.8783 2.71966L55.6618 38.1474L3.12245 38.1474Z" fill="white"/>
</svg>
