<svg width="162" height="178" viewBox="0 0 162 178" fill="none" xmlns="http://www.w3.org/2000/svg">
<g opacity="0.95">
<path d="M40.8779 -11.4317C-31.02 -19.2545 -15.9148 136.114 -14.3037 181.55L193.586 175.723L187.429 -43.9599C178.158 -19.4953 112.776 -3.60897 40.8779 -11.4317Z" fill="#5E97DA"/>
<path d="M59 63.0068C-13.8314 56.0363 -13.3046 168.776 -11.796 210.397L198.871 204.492L182.911 19.3046C151.5 131.507 118.239 61.3463 59 63.0068Z" fill="#467AB6"/>
<path d="M94.8634 20.126C18.2423 -33.3242 -118.565 58.0925 -75.0702 97.2536C-31.5757 136.415 163.092 222.4 163.092 222.4L271.054 41.2541L186.924 -28.3821C162.166 -8.94453 163.092 63.27 94.8634 20.126Z" fill="#467AB6" fill-opacity="0.4"/>
<path d="M141.713 113.628C95.3274 112.602 85.1595 159.477 88.4525 187.439L196.188 175.59L175.34 51.6835C170.627 67.2752 178 108.001 141.713 113.628Z" fill="#295487"/>
</g>
</svg>
