<svg width="162" height="178" viewBox="0 0 162 178" fill="none" xmlns="http://www.w3.org/2000/svg">
<g opacity="0.95">
<path d="M178.5 43.5014C187.673 -23.334 42.4085 -13.3102 0 -12.9955V181H205C182.431 171.716 169.327 110.337 178.5 43.5014Z" fill="#5E97DA"/>
<path d="M98.9557 88.5146C107.194 28.2249 33.0844 13.7202 -5 14.0041V189L164.691 180.062C144.423 171.687 98.9557 137.723 98.9557 88.5146Z" fill="#467AB6"/>
<path d="M120.235 45.2303C129.605 -32.6295 45.3157 -51.3613 2 -50.9948V175L171 184.5L197.5 91.5C174.448 80.685 120.235 108.78 120.235 45.2303Z" fill="#467AB6" fill-opacity="0.4"/>
<path d="M72.9692 141.917C67.2555 80.9436 2.77779 75.2983 -34.2532 84.1982L-1.88139 223.483L161.261 175.844C139.61 172.222 84.182 190.162 72.9692 141.917Z" fill="#295487"/>
</g>
</svg>
