<svg width="90" height="90" viewBox="0 0 90 90" fill="none" xmlns="http://www.w3.org/2000/svg">
<g clip-path="url(#clip0_598_335)">
<path d="M58.0521 29.9013C54.7077 30.3501 53.0165 30.5958 51.3461 30.5478C50.9945 29.3729 50.322 28.3421 49.4309 27.5462C50.3591 25.5274 53.1018 23.3338 55.1173 21.4034C58.1822 18.4696 60.1388 14.3621 57.7902 10.4501C56.0182 7.49431 49.3796 5.10316 41.3589 9.01429C33.3382 12.9286 34.5173 20.0015 36.4031 22.4473C38.4645 25.1213 39.5236 26.4643 40.3172 27.9361C39.5018 28.802 38.9153 29.8839 38.6642 31.0928C36.4511 31.2947 33.1865 30.0172 30.5125 29.2378C26.4389 28.0509 21.9022 28.4112 19.6879 32.3997C18.0151 35.4121 19.2621 42.3574 26.6615 47.3481C34.0587 52.3379 39.5944 47.7795 40.7714 44.9232C42.0566 41.8028 42.6887 40.2141 43.5678 38.7892C44.0526 38.905 44.5558 38.9716 45.0756 38.9716C45.793 38.9716 46.4797 38.8526 47.1261 38.6398C48.4079 40.4544 48.9352 43.9209 49.5979 46.631C50.6057 50.7527 53.1869 54.501 57.7486 54.4246C61.1933 54.3657 66.5849 49.8126 67.2061 40.9096C67.8286 32.0088 61.1137 29.493 58.0521 29.9013ZM47.7048 35.0549C47.0278 35.7297 46.1074 36.1435 45.0756 36.1445C44.0438 36.1435 43.1223 35.7297 42.4454 35.0549C41.7695 34.3769 41.3568 33.4565 41.3557 32.4247C41.3568 31.3928 41.7695 30.4714 42.4454 29.7943C43.1234 29.1184 44.0439 28.7046 45.0756 28.7046C46.1064 28.7046 47.0278 29.1184 47.7048 29.7943C48.3806 30.4712 48.7944 31.3928 48.7944 32.4247C48.7944 33.4565 48.3806 34.3769 47.7048 35.0549Z" fill="#88C0FF"/>
<path d="M77.3569 32.3569C77.3559 14.4867 62.8703 0.00105469 45 0C27.1297 0.00105469 12.6441 14.4867 12.6431 32.3569C12.6441 48.6888 24.7451 62.1874 40.4689 64.3918V67.0843C40.541 74.6485 23.1641 78.792 22.316 84.8062C21.5232 90.4238 28.3679 89.9924 28.3679 89.9924H60.7424C60.7424 89.9924 67.5861 90.4238 66.7935 84.8062C65.9452 78.7922 48.5684 74.6487 48.6404 67.0843V64.5042C64.7963 62.695 77.3559 48.9957 77.3569 32.3569ZM53.1911 80.0172C54.3201 80.0172 55.2338 80.9311 55.2338 82.0591C55.2338 83.1881 54.3201 84.101 53.1911 84.101C52.0632 84.101 51.1492 83.1881 51.1492 82.0591C51.1492 80.9311 52.0632 80.0172 53.1911 80.0172ZM44.3951 84.1008C43.2673 84.1008 42.3533 83.188 42.3533 82.0589C42.3533 80.9311 43.2671 80.017 44.3951 80.017C45.5242 80.017 46.4381 80.9309 46.4381 82.0589C46.4381 83.188 45.5242 84.1008 44.3951 84.1008ZM45 61.4155C36.9707 61.4144 29.7163 58.1662 24.4526 52.9045C19.192 47.6408 15.9427 40.3866 15.9416 32.3571C15.9427 24.3265 19.192 17.0735 24.4526 11.8097C29.7162 6.54891 36.9705 3.29959 45 3.29853C53.0295 3.29959 60.2837 6.54891 65.5476 11.8095C70.8091 17.0733 74.0575 24.3265 74.0586 32.3569C74.0575 40.3864 70.8093 47.6406 65.5476 52.9044C60.2837 58.166 53.0295 61.4143 45 61.4155Z" fill="#88C0FF"/>
</g>
<defs>
<clipPath id="clip0_598_335">
<rect width="90" height="90" fill="white"/>
</clipPath>
</defs>
</svg>
