<svg width="15" height="32" viewBox="0 0 15 32" fill="none" xmlns="http://www.w3.org/2000/svg">
<mask id="mask0_671_2004" style="mask-type:alpha" maskUnits="userSpaceOnUse" x="0" y="0" width="15" height="32">
<rect x="0.952148" width="13.9706" height="31.6667" fill="#D9D9D9"/>
</mask>
<g mask="url(#mask0_671_2004)">
<path d="M10.3241 22.962C10.3239 23.4262 10.196 23.8813 9.9546 24.2778C9.71316 24.6742 9.36739 24.9967 8.95509 25.2099C8.54279 25.4231 8.07981 25.5189 7.61675 25.4868C7.15369 25.4547 6.70837 25.2959 6.32945 25.0278C5.95052 24.7597 5.65258 24.3926 5.46817 23.9667C5.28376 23.5407 5.21999 23.0722 5.28382 22.6125C5.34765 22.1527 5.53663 21.7193 5.8301 21.3597C6.12358 21.0001 6.51025 20.728 6.94788 20.5733V6.08087C6.94788 5.85702 7.03681 5.64233 7.1951 5.48403C7.35339 5.32574 7.56808 5.23682 7.79194 5.23682C8.01579 5.23682 8.23048 5.32574 8.38877 5.48403C8.54706 5.64233 8.63599 5.85702 8.63599 6.08087V20.5733C9.1299 20.7479 9.55748 21.0715 9.85983 21.4993C10.1622 21.9271 10.3244 22.4381 10.3241 22.962Z" fill="#9DC6FF"/>
<path d="M3.5719 6.08845C3.5719 4.96916 4.01654 3.89571 4.808 3.10426C5.59945 2.3128 6.6729 1.86816 7.79219 1.86816C8.91147 1.86816 9.98492 2.3128 10.7764 3.10426C11.5678 3.89571 12.0125 4.96916 12.0125 6.08845V18.8337C12.8267 19.6647 13.3775 20.7176 13.5957 21.8604C13.8139 23.0032 13.6899 24.185 13.2392 25.2576C12.7885 26.3302 12.0312 27.2458 11.0622 27.8897C10.0932 28.5336 8.95562 28.8771 7.79219 28.8771C6.62875 28.8771 5.49121 28.5336 4.5222 27.8897C3.55319 27.2458 2.79586 26.3302 2.34515 25.2576C1.89444 24.185 1.77043 23.0032 1.98867 21.8604C2.2069 20.7176 2.75767 19.6647 3.5719 18.8337V6.08845ZM7.79219 3.55628C7.12061 3.55628 6.47655 3.82306 6.00167 4.29793C5.5268 4.77281 5.26002 5.41687 5.26002 6.08845V19.5714L4.9781 19.8246C4.34096 20.3944 3.89185 21.1442 3.69019 21.9748C3.48854 22.8054 3.54385 23.6777 3.8488 24.4762C4.15376 25.2747 4.69399 25.9618 5.39799 26.4465C6.102 26.9312 6.9366 27.1908 7.79134 27.1908C8.64609 27.1908 9.48069 26.9312 10.1847 26.4465C10.8887 25.9618 11.4289 25.2747 11.7339 24.4762C12.0388 23.6777 12.0941 22.8054 11.8925 21.9748C11.6908 21.1442 11.2417 20.3944 10.6046 19.8246L10.3244 19.5697V6.08845C10.3244 5.41687 10.0576 4.77281 9.5827 4.29793C9.10783 3.82306 8.46376 3.55628 7.79219 3.55628ZM16.2328 5.24439C16.4566 5.24439 16.6713 5.33332 16.8296 5.49161C16.9879 5.6499 17.0768 5.86459 17.0768 6.08845V7.77656C17.0768 8.00042 16.9879 8.21511 16.8296 8.3734C16.6713 8.53169 16.4566 8.62062 16.2328 8.62062C16.0089 8.62062 15.7942 8.53169 15.6359 8.3734C15.4776 8.21511 15.3887 8.00042 15.3887 7.77656V6.08845C15.3887 5.86459 15.4776 5.6499 15.6359 5.49161C15.7942 5.33332 16.0089 5.24439 16.2328 5.24439ZM23.3954 8.2104C23.5536 8.36869 23.6425 8.58334 23.6425 8.80715C23.6425 9.03096 23.5536 9.24562 23.3954 9.4039L22.2019 10.5991C22.0434 10.7576 21.8285 10.8466 21.6043 10.8466C21.3802 10.8466 21.1652 10.7576 21.0067 10.5991C20.8482 10.4406 20.7592 10.2256 20.7592 10.0015C20.7592 9.77735 20.8482 9.56239 21.0067 9.4039L22.2019 8.2104C22.3602 8.05217 22.5749 7.96327 22.7987 7.96327C23.0225 7.96327 23.2371 8.05217 23.3954 8.2104ZM15.3887 11.1528C15.3887 10.9289 15.4776 10.7142 15.6359 10.5559C15.7942 10.3977 16.0089 10.3087 16.2328 10.3087C17.5759 10.3087 18.864 10.8423 19.8138 11.792C20.7635 12.7418 21.2971 14.0299 21.2971 15.3731C21.2971 16.7162 20.7635 18.0043 19.8138 18.9541C18.864 19.9038 17.5759 20.4374 16.2328 20.4374C16.0089 20.4374 15.7942 20.3485 15.6359 20.1902C15.4776 20.0319 15.3887 19.8172 15.3887 19.5933C15.3887 19.3695 15.4776 19.1548 15.6359 18.9965C15.7942 18.8382 16.0089 18.7493 16.2328 18.7493C17.1282 18.7493 17.9869 18.3936 18.6201 17.7604C19.2533 17.1273 19.609 16.2685 19.609 15.3731C19.609 14.4776 19.2533 13.6189 18.6201 12.9857C17.9869 12.3525 17.1282 11.9968 16.2328 11.9968C16.0089 11.9968 15.7942 11.9079 15.6359 11.7496C15.4776 11.5913 15.3887 11.3766 15.3887 11.1528ZM22.9852 15.3731C22.9852 15.1492 23.0741 14.9345 23.2324 14.7762C23.3907 14.6179 23.6054 14.529 23.8293 14.529H25.5174C25.7412 14.529 25.9559 14.6179 26.1142 14.7762C26.2725 14.9345 26.3614 15.1492 26.3614 15.3731C26.3614 15.5969 26.2725 15.8116 26.1142 15.9699C25.9559 16.1282 25.7412 16.2171 25.5174 16.2171H23.8293C23.6054 16.2171 23.3907 16.1282 23.2324 15.9699C23.0741 15.8116 22.9852 15.5969 22.9852 15.3731ZM21.0067 20.147C21.0851 20.0684 21.1783 20.0061 21.2808 19.9635C21.3834 19.921 21.4933 19.8991 21.6043 19.8991C21.7153 19.8991 21.8253 19.921 21.9278 19.9635C22.0304 20.0061 22.1235 20.0684 22.2019 20.147L23.3954 21.3422C23.5492 21.5014 23.6342 21.7146 23.6323 21.9359C23.6304 22.1573 23.5416 22.3689 23.3851 22.5254C23.2286 22.6819 23.0169 22.7707 22.7956 22.7726C22.5743 22.7746 22.3611 22.6895 22.2019 22.5357L21.0067 21.3422C20.9281 21.2638 20.8658 21.1707 20.8232 21.0681C20.7807 20.9656 20.7588 20.8557 20.7588 20.7446C20.7588 20.6336 20.7807 20.5237 20.8232 20.4211C20.8658 20.3186 20.9281 20.2255 21.0067 20.147ZM16.2328 22.1255C16.4566 22.1255 16.6713 22.2144 16.8296 22.3727C16.9879 22.531 17.0768 22.7457 17.0768 22.9696V24.6577C17.0768 24.8815 16.9879 25.0962 16.8296 25.2545C16.6713 25.4128 16.4566 25.5017 16.2328 25.5017C16.0089 25.5017 15.7942 25.4128 15.6359 25.2545C15.4776 25.0962 15.3887 24.8815 15.3887 24.6577V22.9696C15.3887 22.7457 15.4776 22.531 15.6359 22.3727C15.7942 22.2144 16.0089 22.1255 16.2328 22.1255Z" fill="#9DC6FF"/>
</g>
</svg>
