<svg width="89" height="84" viewBox="0 0 89 84" fill="none" xmlns="http://www.w3.org/2000/svg">
<path d="M47.0371 17.5227L48.9028 25.6908C47.4539 25.5489 45.9848 25.4745 44.4999 25.4745C43.0127 25.4745 41.5436 25.5489 40.0947 25.6908L41.9604 17.5227H47.0371Z" fill="#4785DD"/>
<path d="M37.2485 71.6082H51.7484C50.98 74.9002 48.0215 77.363 44.4996 77.363C40.9755 77.363 38.0169 74.9002 37.2485 71.6082Z" fill="#4785DD"/>
<path d="M88.9435 69.9181C88.9435 70.851 88.1864 71.6081 87.2535 71.6081H55.1916C54.3759 76.7748 49.8919 80.7429 44.4998 80.7429C39.1055 80.7429 34.6214 76.7748 33.8058 71.6081H1.74611C0.811001 71.6081 0.0561523 70.851 0.0561523 69.9181C0.0561523 48.1357 15.8043 29.9652 36.5142 26.1932L38.9658 15.4564C39.1415 14.6857 39.8265 14.1427 40.6129 14.1427H42.8099V-0.052961C42.8099 -0.988072 43.5647 -1.74292 44.4998 -1.74292C45.4327 -1.74292 46.1898 -0.988072 46.1898 -0.052961V14.1427H48.3845C49.1709 14.1427 49.8559 14.6857 50.0316 15.4564L52.4832 26.1932C73.1931 29.9652 88.9435 48.1357 88.9435 69.9181ZM3.46987 68.2281H44.4987H85.5275C84.6375 46.3668 66.5752 28.8543 44.4998 28.8543C22.4222 28.8543 4.35991 46.3668 3.46987 68.2281ZM51.7486 71.6081H37.2488C38.0171 74.9001 40.9757 77.3629 44.4998 77.3629C48.0217 77.3629 50.9803 74.9001 51.7486 71.6081ZM48.9027 25.6907L47.037 17.5226H41.9604L40.0947 25.6907C41.5435 25.5488 43.0127 25.4744 44.4998 25.4744C45.9847 25.4744 47.4539 25.5488 48.9027 25.6907Z" fill="white"/>
<path d="M82.5981 63.7914C82.7468 64.713 82.1181 65.5805 81.1965 65.727C81.1064 65.7427 81.0163 65.7495 80.9284 65.7495C80.1127 65.7495 79.3939 65.1569 79.261 64.3254C79.1753 63.7869 79.0739 63.2438 78.9635 62.7098C78.772 61.7972 79.3578 60.9027 80.2727 60.7112C81.1853 60.5219 82.0821 61.1055 82.2713 62.0203C82.393 62.6039 82.5034 63.201 82.5981 63.7914Z" fill="white"/>
<path d="M80.7842 56.786C81.1019 57.6625 80.649 58.6337 79.7725 58.9514C79.5809 59.0213 79.3872 59.0528 79.1956 59.0528C78.5039 59.0528 77.8549 58.6269 77.6071 57.9397C74.0965 48.2664 66.5637 40.6278 56.9377 36.9797C56.0657 36.6507 55.6263 35.675 55.9576 34.8008C56.2888 33.9288 57.2622 33.4894 58.1365 33.8206C68.6818 37.8179 76.9378 46.1888 80.7842 56.786Z" fill="white"/>
<path d="M50.6627 31.8242C51.5843 31.9729 52.2107 32.8405 52.062 33.762C51.9291 34.5912 51.2103 35.1816 50.3968 35.1816C50.3067 35.1816 50.2166 35.1748 50.1242 35.1613C48.2788 34.8639 46.386 34.7129 44.5 34.7129C43.5649 34.7129 42.8101 33.9558 42.8101 33.023C42.8101 32.0879 43.5649 31.333 44.5 31.333C46.564 31.333 48.6393 31.4975 50.6627 31.8242Z" fill="white"/>
</svg>
