<svg width="67" height="92" viewBox="0 0 67 92" fill="none" xmlns="http://www.w3.org/2000/svg">
<path d="M8.89844 41H53.9141L67 92H0L8.89844 41Z" fill="#5E97DA"/>
<path d="M61.7194 39.1799L52.262 1.03252C52.1116 0.425791 51.567 0 50.9423 0H13.842C13.2169 0 12.6724 0.426151 12.5223 1.03252L3.06486 39.1799C2.96422 39.5861 3.05604 40.0159 3.31367 40.3452C3.57131 40.6744 3.96631 40.8671 4.38472 40.8671H27.8662V48.7722H27.0778C24.6612 48.7722 22.3405 49.7955 20.7104 51.5795C19.0809 53.3634 18.2711 55.7669 18.4891 58.1729L20.8028 83.7898H18.0415C17.2908 83.7898 16.6817 84.3987 16.6817 85.1497V90.8202C16.6817 91.5709 17.2906 92.18 18.0415 92.18H46.7427C47.4935 92.18 48.1025 91.5711 48.1025 90.8202V85.1497C48.1025 84.3989 47.4936 83.7898 46.7427 83.7898H43.9815L46.2955 58.1735C46.5133 55.7669 45.7037 53.3634 44.074 51.5795C42.4443 49.7955 40.1234 48.7724 37.7069 48.7724H36.9182V40.8669H45.4374V50.3132C45.4374 51.0639 46.0465 51.673 46.7973 51.673C47.548 51.673 48.1571 51.0641 48.1571 50.3132V40.8669H60.4002C60.8186 40.8669 61.2136 40.6744 61.4713 40.345C61.7284 40.0155 61.8202 39.5858 61.7194 39.1799ZM45.3825 86.5091V89.46H19.401V86.5091H45.3825ZM37.7064 51.4917C39.3853 51.4917 40.9334 52.174 42.0657 53.4136C43.1978 54.6528 43.7379 56.256 43.5865 57.9282L41.2503 83.7897H23.5331L21.1974 57.9277C21.046 56.256 21.5861 54.6528 22.7178 53.4136C23.8501 52.1742 25.3983 51.4917 27.0771 51.4917H37.7064ZM30.5857 48.772V40.8669H34.1984V48.772H30.5857ZM6.12245 38.1474L14.9058 2.71966H49.8783L58.6618 38.1474H6.12245Z" fill="white"/>
</svg>
