<svg width="61" height="82" viewBox="0 0 61 82" fill="none" xmlns="http://www.w3.org/2000/svg">
<path d="M41.6365 22.7477C38.7187 22.7385 35.8225 22.2572 33.0648 21.3234L31.626 20.7837L32.177 19.3744C32.3148 19.0296 35.621 10.8286 43.06 7.57521C50.499 4.32181 58.9483 7.3803 59.3003 7.57521L60.7545 8.09995L60.1881 9.50925C60.0504 9.86908 56.7441 18.07 49.3051 21.3234C46.88 22.3224 44.2666 22.8078 41.6365 22.7477ZM35.8047 18.9846C38.3609 19.6293 43.5804 20.4838 48.05 18.5198C52.5195 16.5558 55.3971 12.148 56.6217 9.85409C54.0502 9.2094 48.8306 8.35482 44.3764 10.3039C39.7538 12.2979 36.9527 16.6907 35.8047 18.9846Z" fill="#7D6BEC"/>
<path d="M29.0855 25.162L27.5548 24.9821C27.1722 24.9821 18.2331 23.8276 13.1819 17.5757C8.13073 11.3238 9.07974 2.58312 9.11036 2.16332L9.29404 0.664062L10.8247 0.843974C11.1921 0.843974 20.1311 2.0134 25.1823 8.34028C30.2335 14.6672 29.2998 23.3329 29.2539 23.7377L29.0855 25.162ZM12.0798 4.12735C12.0798 6.73607 12.5084 11.8935 15.5851 15.7016C18.3947 18.7901 22.1568 20.8957 26.2997 21.6987C26.2997 19.105 25.8864 13.9475 22.7945 10.1244C19.7025 6.31628 14.6667 4.72706 12.0798 4.12735Z" fill="#7D6BEC"/>
<path d="M25.0912 45.7344C24.6853 45.7344 24.2959 45.5764 24.0089 45.2953C23.7218 45.0141 23.5605 44.6328 23.5605 44.2351C23.5605 43.3356 23.683 22.121 33.8007 18.8227C34.1843 18.699 34.6024 18.7289 34.9636 18.9058C35.3249 19.0828 35.6001 19.3924 35.7293 19.7672C35.8052 19.9625 35.8385 20.1712 35.8272 20.3799C35.8159 20.5886 35.7602 20.7926 35.6636 20.979C35.5671 21.1653 35.4318 21.3299 35.2665 21.462C35.1012 21.5941 34.9095 21.6909 34.7038 21.7462C28.0301 23.8452 26.6219 38.7029 26.6219 44.2351C26.6219 44.6328 26.4606 45.0141 26.1736 45.2953C25.8865 45.5764 25.4972 45.7344 25.0912 45.7344Z" fill="#7D6BEC"/>
<path d="M42.3418 81.7245H7.84068C7.4575 81.726 7.08768 81.5867 6.80427 81.3341C6.52087 81.0815 6.3445 80.7339 6.31002 80.3601L3.66197 50.3749C3.64279 50.167 3.66815 49.9574 3.73644 49.7597C3.80472 49.5619 3.91443 49.3803 4.05852 49.2264C4.20261 49.0726 4.37792 48.9499 4.57322 48.8663C4.76851 48.7827 4.97949 48.7399 5.19264 48.7407H44.9898C45.203 48.7399 45.414 48.7827 45.6092 48.8663C45.8045 48.9499 45.9799 49.0726 46.1239 49.2264C46.268 49.3803 46.3777 49.5619 46.446 49.7597C46.5143 49.9574 46.5397 50.167 46.5205 50.3749L43.8571 80.3601C43.8229 80.7314 43.6487 81.0768 43.3685 81.329C43.0884 81.5813 42.7223 81.7223 42.3418 81.7245ZM9.24889 78.7259H40.9336L43.3214 51.7393H6.86106L9.24889 78.7259Z" fill="#7D6BEC"/>
<path d="M48.0511 51.7446H2.13125C1.72529 51.7446 1.33596 51.5866 1.04891 51.3055C0.76185 51.0243 0.600586 50.643 0.600586 50.2453V44.2483C0.600586 43.8507 0.76185 43.4693 1.04891 43.1881C1.33596 42.907 1.72529 42.749 2.13125 42.749H48.0511C48.457 42.749 48.8464 42.907 49.1334 43.1881C49.4205 43.4693 49.5818 43.8507 49.5818 44.2483V50.2453C49.5818 50.643 49.4205 51.0243 49.1334 51.3055C48.8464 51.5866 48.457 51.7446 48.0511 51.7446ZM3.66191 48.7461H46.5204V45.7475H3.66191V48.7461Z" fill="#7D6BEC"/>
</svg>
