<svg width="89" height="119" viewBox="0 0 89 119" fill="none" xmlns="http://www.w3.org/2000/svg">
<path d="M15.9998 70.5002H73.4998L81.9998 119L65.9998 115.5L49.9998 110L32.4998 99.5002L16.4998 86.0002L15.9998 70.5002Z" fill="#E3D074" fill-opacity="0.2"/>
<path d="M47.037 17.5229L48.9027 25.691C47.4539 25.549 45.9847 25.4747 44.4998 25.4747C43.0127 25.4747 41.5435 25.549 40.0947 25.691L41.9604 17.5229H47.037Z" fill="#4785DD"/>
<path d="M37.2488 71.6083H51.7486C50.9803 74.9003 48.0217 77.3632 44.4998 77.3632C40.9757 77.3632 38.0171 74.9003 37.2488 71.6083Z" fill="#E2C744"/>
<path d="M88.9435 69.9183C88.9435 70.8512 88.1864 71.6083 87.2535 71.6083H55.1916C54.3759 76.7751 49.8919 80.7431 44.4998 80.7431C39.1055 80.7431 34.6214 76.7751 33.8058 71.6083H1.74611C0.811001 71.6083 0.0561523 70.8512 0.0561523 69.9183C0.0561523 48.1359 15.8043 29.9655 36.5142 26.1935L38.9658 15.4566C39.1415 14.686 39.8265 14.1429 40.6129 14.1429H42.8099V-0.0527169C42.8099 -0.987827 43.5647 -1.74268 44.4998 -1.74268C45.4327 -1.74268 46.1898 -0.987827 46.1898 -0.0527169V14.1429H48.3845C49.1709 14.1429 49.8559 14.686 50.0316 15.4566L52.4832 26.1935C73.1931 29.9655 88.9435 48.1359 88.9435 69.9183ZM3.46987 68.2284H85.5275C84.6375 46.3671 66.5752 28.8546 44.4998 28.8546C22.4222 28.8546 4.35991 46.3671 3.46987 68.2284ZM51.7486 71.6083H37.2488C38.0171 74.9003 40.9757 77.3632 44.4998 77.3632C48.0217 77.3632 50.9803 74.9003 51.7486 71.6083ZM48.9027 25.691L47.037 17.5229H41.9604L40.0947 25.691C41.5435 25.549 43.0127 25.4747 44.4998 25.4747C45.9847 25.4747 47.4539 25.549 48.9027 25.691Z" fill="white"/>
<path d="M82.5983 63.7917C82.747 64.7133 82.1183 65.5808 81.1967 65.7273C81.1066 65.743 81.0164 65.7498 80.9286 65.7498C80.1129 65.7498 79.3941 65.1572 79.2611 64.3257C79.1755 63.7872 79.0741 63.2441 78.9637 62.7101C78.7722 61.7975 79.358 60.903 80.2729 60.7115C81.1854 60.5222 82.0822 61.1058 82.2715 62.0206C82.3932 62.6042 82.5036 63.2013 82.5983 63.7917Z" fill="white"/>
<path d="M80.7844 56.7862C81.1021 57.6628 80.6492 58.6339 79.7726 58.9516C79.5811 59.0215 79.3873 59.053 79.1958 59.053C78.5041 59.053 77.8551 58.6272 77.6072 57.9399C74.0966 48.2666 66.5639 40.628 56.9379 36.9799C56.0659 36.6509 55.6265 35.6753 55.9577 34.801C56.289 33.929 57.2624 33.4896 58.1367 33.8208C68.682 37.8181 76.938 46.1891 80.7844 56.7862Z" fill="white"/>
<path d="M50.6625 31.8244C51.5841 31.9731 52.2105 32.8406 52.0618 33.7622C51.9289 34.5914 51.2101 35.1818 50.3966 35.1818C50.3065 35.1818 50.2164 35.175 50.124 35.1615C48.2786 34.8641 46.3858 34.7131 44.4998 34.7131C43.5647 34.7131 42.8099 33.956 42.8099 33.0232C42.8099 32.0881 43.5647 31.3332 44.4998 31.3332C46.5638 31.3332 48.6391 31.4977 50.6625 31.8244Z" fill="white"/>
</svg>
